<svg xmlns="http://www.w3.org/2000/svg" viewBox="0 0 88 80"><path d="M44 34c-.552 0-1-.448-1-1V21c0-.552.448-1 1-1s1 .448 1 1v12c0 .552-.448 1-1 1M32 54c-.552 0-1-.448-1-1v-3h-3c-.552 0-1-.448-1-1s.448-1 1-1h3v-3c0-.552.448-1 1-1s1 .448 1 1v3h3c.552 0 1 .448 1 1s-.448 1-1 1h-3v3c0 .552-.448 1-1 1m9.156-2h5.688c.398 0 .757.235.916.599C49.196 55.88 52.43 58 56 58c4.962 0 9-4.038 9-9s-4.038-9-9-9H32c-4.962 0-9 4.038-9 9s4.038 9 9 9c3.569 0 6.804-2.12 8.24-5.401.159-.364.519-.599.916-.599M56 60c-4.143 0-7.916-2.334-9.788-6h-4.423c-1.874 3.666-5.646 6-9.789 6-6.065 0-11-4.935-11-11s4.935-11 11-11h24c6.065 0 11 4.935 11 11s-4.935 11-11 11m1-12.5c0 .828.672 1.5 1.5 1.5s1.5-.672 1.5-1.5c0-.829-.672-1.5-1.5-1.5s-1.5.671-1.5 1.5zm-4 4c0 .828.672 1.5 1.5 1.5.829 0 1.5-.672 1.5-1.5 0-.829-.671-1.5-1.5-1.5-.828 0-1.5.671-1.5 1.5z" transform="translate(-1308.000000, -514.000000) translate(1308.000000, 514.000000)"></path></svg>