<svg xmlns="http://www.w3.org/2000/svg" viewBox="0 0 88 80"><path d="M55 36.001c-.641 0-1.281.244-1.769.731-.974.975-.974 2.561 0 3.536.974.973 2.561.974 3.537 0 .974-.975.974-2.561 0-3.536-.488-.487-1.128-.731-1.768-.731zm-.001 9.499c-.553 0-1-.448-1-1v-1.614c-.487-.11-.96-.302-1.395-.576l-1.897 1.897c-.391.391-1.024.391-1.415 0-.39-.39-.39-1.023 0-1.414l1.897-1.897c-.273-.436-.465-.908-.576-1.396H49c-.553 0-1-.448-1-1s.447-1 1-1h1.613c.11-.488.303-.96.576-1.396l-1.897-1.897c-.39-.391-.39-1.023 0-1.414.391-.391 1.024-.391 1.415 0l1.897 1.897c.435-.273.908-.466 1.395-.576V32.5c0-.552.447-1 1-1 .553 0 1 .448 1 1v1.614c.487.11.961.302 1.397.576l1.896-1.897c.391-.391 1.023-.391 1.414 0 .391.39.391 1.023 0 1.414l-1.896 1.897c.273.436.465.908.576 1.396h1.613c.553 0 1 .448 1 1s-.447 1-1 1h-1.613c-.111.488-.303.96-.576 1.396l1.896 1.897c.391.391.391 1.024 0 1.414-.391.391-1.023.391-1.414 0l-1.896-1.897c-.436.274-.909.466-1.397.576V44.5c0 .552-.447 1-1 1zM27 46c-.553 0-1-.448-1-1V32c0-.552.447-1 1-1 .552 0 1 .448 1 1v13c0 .552-.448 1-1 1zm26 10H40c-.553 0-1-.448-1-1s.447-1 1-1h13c.552 0 1 .448 1 1s-.448 1-1 1zm10.999 0h-5c-.553 0-1-.448-1-1s.447-1 1-1h5c.553 0 1 .448 1 1s-.447 1-1 1zM31 48h34V29H31v19zm-1 13c-.553 0-1-.448-1-1V21h-7c-.553 0-1-.448-1-1s.447-1 1-1h8c.552 0 1 .448 1 1v7h34.999c.553 0 1 .448 1 1v21c0 .552-.447 1-1 1H31v10c0 .552-.448 1-1 1z" transform="translate(-1420.000000, -514.000000) translate(1420.000000, 514.000000)"></path></svg>