<svg xmlns="http://www.w3.org/2000/svg" viewBox="0 0 88 80"><path d="M31 33c-4.411 0-8 3.589-8 8 0 4.739 4.139 8.574 9 7.934V33.066c-.336-.044-.671-.066-1-.066zm25 15.934c4.861.641 9-3.194 9-7.934s-4.153-8.567-9-7.934v15.868zM38 61h10v-2H38v2zm11 2H37c-.552 0-1-.448-1-1v-1h-2c-3.86 0-7-3.14-7-7v-3.835c-3.529-1.546-6-5.072-6-9.165 0-4.093 2.472-7.62 6.001-9.166C27.09 23.639 33.784 17 42 17h4c8.216 0 14.91 6.639 14.999 14.834C64.528 33.38 67 36.907 67 41c0 5.514-4.486 10-10 10-.73 0-1.478-.086-2.223-.256-.454-.104-.777-.508-.777-.975V32.231c0-.466.322-.87.777-.974 1.431-.328 2.868-.329 4.199-.061C58.559 24.401 52.898 19 46 19h-4c-6.898 0-12.559 5.401-12.976 12.196 1.33-.268 2.768-.267 4.199.061.455.104.777.508.777.974v17.538c0 .467-.323.871-.777.975-1.443.33-2.887.326-4.223.055V54c0 2.757 2.243 5 5 5h2v-1c0-.552.448-1 1-1h12c.552 0 1 .448 1 1v4c0 .552-.448 1-1 1z" transform="translate(-524.000000, -649.000000) translate(524.000000, 649.000000)"></path></svg>