<svg xmlns="http://www.w3.org/2000/svg" viewBox="0 0 88 80"><path d="M62 45c-.552 0-1-.448-1-1V28c0-1.654-1.346-3-3-3H30c-1.654 0-3 1.346-3 3v16c0 .552-.448 1-1 1s-1-.448-1-1V28c0-2.757 2.243-5 5-5h28c2.757 0 5 2.243 5 5v16c0 .552-.448 1-1 1M45 31h-2c-.552 0-1-.448-1-1s.448-1 1-1h2c.552 0 1 .448 1 1s-.448 1-1 1M23 50v2c0 1.654 1.346 3 3 3h36c1.654 0 3-1.346 3-3v-2H52v1c0 .552-.448 1-1 1H37c-.552 0-1-.448-1-1v-1H23zm39 7H26c-2.757 0-5-2.243-5-5v-3c0-.552.448-1 1-1h15c.552 0 1 .448 1 1v1h12v-1c0-.552.448-1 1-1h15c.552 0 1 .448 1 1v3c0 2.757-2.243 5-5 5z" transform="translate(-636.000000, -649.000000) translate(636.000000, 649.000000)"></path></svg>