<svg xmlns="http://www.w3.org/2000/svg" viewBox="0 0 88 80"><path fill-rule="evenodd" d="M66 53H22c-.552 0-1-.448-1-1V20c0-.552.448-1 1-1h44c.552 0 1 .448 1 1v32c0 .552-.448 1-1 1zm-1-6v4H23v-4h42zm0-26v24H23V21h42zM44 54c.552 0 1 .448 1 1l.001 2.013c6.58.172 11.17 1.978 11.371 2.058.512.205.761.787.556 1.3-.156.391-.532.629-.929.629-.123 0-.248-.023-.37-.071C55.581 60.91 50.704 59 44 59s-11.581 1.91-11.629 1.929c-.516.203-1.095-.046-1.299-.558-.205-.513.044-1.095.556-1.3.202-.08 4.792-1.886 11.372-2.058V55c0-.552.448-1 1-1z" transform="translate(-972.000000, -784.000000) translate(972.000000, 784.000000)"></path></svg>