<svg xmlns="http://www.w3.org/2000/svg" viewBox="0 0 88 80"><path d="M52 17c.447 0 .839.296.962.726l1.81 6.333C57.164 24.432 59 26.505 59 29v6h3c.552 0 1 .448 1 1v8c0 .552-.448 1-1 1h-3v6c0 2.495-1.836 4.568-4.228 4.94l-1.811 6.335c-.122.429-.515.725-.961.725H32c-.446 0-.839-.296-.961-.725l-1.81-6.334C26.835 55.568 25 53.495 25 51V29c0-2.495 1.836-4.568 4.228-4.94l1.81-6.334c.123-.43.515-.726.962-.726h20zm.675 39h-21.35l1.429 5h18.492l1.429-5zM54 26H30c-1.654 0-3 1.346-3 3v22c0 1.654 1.346 3 3 3h24c1.654 0 3-1.346 3-3V29c0-1.654-1.346-3-3-3zm7 11h-2v6h2v-6zm-19-6c.552 0 1 .448 1 1v7h8c.552 0 1 .448 1 1s-.448 1-1 1h-9c-.552 0-1-.448-1-1v-8c0-.552.448-1 1-1zm9.245-12h-18.49l-1.43 5h21.349l-1.428-5z"></path></svg>